<svg width="2979" height="1206" xmlns="http://www.w3.org/2000/svg" xmlns:xlink="http://www.w3.org/1999/xlink" overflow="hidden"><defs><clipPath id="clip0"><rect x="852" y="540" width="2979" height="1206"/></clipPath></defs><g clip-path="url(#clip0)" transform="translate(-852 -540)"><path d="M2707.86 739C2657.53 739 2616.73 962.187 2616.73 1237.5 2616.73 1512.82 2657.53 1736 2707.86 1736L1519.14 1736C1468.8 1736 1428 1512.81 1428 1237.5 1428 962.185 1468.8 738.999 1519.14 738.999Z" fill="#4472C4" fill-rule="evenodd" fill-opacity="0.34902"/><path d="M2707.86 739C2758.2 739 2799 962.187 2799 1237.5 2799 1512.82 2758.2 1736 2707.86 1736 2657.53 1736 2616.73 1512.82 2616.73 1237.5 2616.73 962.187 2657.53 739 2707.86 739Z" fill="#8FAADC" fill-rule="evenodd" fill-opacity="0.34902"/><path d="M2707.86 1736C2657.53 1736 2616.73 1512.81 2616.73 1237.5 2616.73 962.185 2657.53 738.999 2707.86 738.999 2758.2 738.999 2799 962.185 2799 1237.5 2799 1512.81 2758.2 1736 2707.86 1736L1519.14 1736C1468.8 1736 1428 1512.81 1428 1237.5 1428 962.185 1468.8 738.999 1519.14 738.999L2707.86 739" stroke="#000000" stroke-width="13.75" stroke-linecap="butt" stroke-linejoin="miter" stroke-miterlimit="8" stroke-opacity="1" fill="none" fill-rule="evenodd"/><path d="M2711 1232.84 3643.79 1232.84 3643.79 1243.16 2711 1243.16ZM3638.63 1222.53 3669.57 1238 3638.63 1253.47Z" fill="#7030A0" fill-rule="nonzero" fill-opacity="1"/><path d="M0 0 1850.36 0.000360892" stroke="#7030A0" stroke-width="10.3125" stroke-linecap="butt" stroke-linejoin="miter" stroke-miterlimit="8" stroke-opacity="0.27451" fill="none" fill-rule="evenodd" transform="matrix(-1 0 0 1 2710.36 1238)"/><path d="M0 0 567.678 0.000360892" stroke="#7030A0" stroke-width="10.3125" stroke-linecap="butt" stroke-linejoin="miter" stroke-miterlimit="8" stroke-opacity="1" fill="none" fill-rule="evenodd" transform="matrix(-1 0 0 1 1427.68 1238)"/><text fill="#000000" fill-opacity="1" font-family="Calibri,Calibri_MSFontService,sans-serif" font-style="normal" font-variant="normal" font-weight="400" font-stretch="normal" font-size="83" text-anchor="start" direction="ltr" writing-mode="lr-tb" unicode-bidi="normal" text-decoration="none" transform="matrix(1 0 0 1 3450.86 1229)">XFEL</text><path d="M2711.5 1238.5 2711.5 1737.43" stroke="#4472C4" stroke-width="6.875" stroke-linecap="butt" stroke-linejoin="miter" stroke-miterlimit="8" stroke-opacity="1" fill="none" fill-rule="evenodd"/><text fill="#000000" fill-opacity="1" font-family="Calibri,Calibri_MSFontService,sans-serif" font-style="normal" font-variant="normal" font-weight="400" font-stretch="normal" font-size="83" text-anchor="start" direction="ltr" writing-mode="lr-tb" unicode-bidi="normal" text-decoration="none" transform="matrix(1 0 0 1 2832.11 1406)">Beam Radius</text><path d="M21.6052 7.72654 259.183 106.332 258.305 108.449 20.7267 9.84314ZM20.1283 23.2414 0 0 30.6701-2.15777ZM259.782 92.9342 279.91 116.176 249.24 118.333Z" fill="#4472C4" fill-rule="nonzero" fill-opacity="1" transform="matrix(-1 0 0 1 3012.91 1446)"/><path d="M1509.5 660.5 2711.64 660.5" stroke="#4472C4" stroke-width="6.875" stroke-linecap="butt" stroke-linejoin="miter" stroke-miterlimit="8" stroke-opacity="1" fill="none" fill-rule="evenodd"/><path d="M0 0 0.000360892 121.785" stroke="#4472C4" stroke-width="2.29167" stroke-linecap="butt" stroke-linejoin="miter" stroke-miterlimit="8" stroke-opacity="1" fill="none" fill-rule="evenodd" transform="matrix(1 0 0 -1 1509 738.785)"/><path d="M0 0 0.000360892 125.714" stroke="#4472C4" stroke-width="2.29167" stroke-linecap="butt" stroke-linejoin="miter" stroke-miterlimit="8" stroke-opacity="1" fill="none" fill-rule="evenodd" transform="matrix(1 0 0 -1 2711 742.714)"/><text fill="#000000" fill-opacity="1" font-family="Calibri,Calibri_MSFontService,sans-serif" font-style="normal" font-variant="normal" font-weight="400" font-stretch="normal" font-size="83" text-anchor="start" direction="ltr" writing-mode="lr-tb" unicode-bidi="normal" text-decoration="none" transform="matrix(1 0 0 1 1637.58 644)">Beam Iteration Path Length</text></g></svg>